<mxfile host="www.draw.io" modified="2019-12-08T15:31:17.161Z" agent="Mozilla/5.0 (X11; Linux x86_64) AppleWebKit/537.36 (KHTML, like Gecko) Chrome/78.0.3904.108 Safari/537.36" etag="AAgGUHj1A7wXX86HfIvO" version="12.3.8" type="github" pages="1">
  <diagram id="RYnue4cF0OKcC7SYmtah" name="Page-1">
    <mxGraphModel dx="1406" dy="778" grid="1" gridSize="10" guides="1" tooltips="1" connect="1" arrows="1" fold="1" page="1" pageScale="1" pageWidth="850" pageHeight="1100" math="0" shadow="0">
      <root>
        <mxCell id="0"/>
        <mxCell id="1" parent="0"/>
        <mxCell id="TG9i973_F82ijA39gTVR-1" value="clients" style="whiteSpace=wrap;html=1;align=center;" parent="1" vertex="1">
          <mxGeometry x="110" y="80" width="100" height="40" as="geometry"/>
        </mxCell>
        <mxCell id="TG9i973_F82ijA39gTVR-2" value="username" style="ellipse;whiteSpace=wrap;html=1;align=center;fontStyle=4" parent="1" vertex="1">
          <mxGeometry y="10" width="70" height="28" as="geometry"/>
        </mxCell>
        <mxCell id="TG9i973_F82ijA39gTVR-3" value="password" style="ellipse;whiteSpace=wrap;html=1;align=center;" parent="1" vertex="1">
          <mxGeometry x="80" y="10" width="70" height="28" as="geometry"/>
        </mxCell>
        <mxCell id="TG9i973_F82ijA39gTVR-4" value="name&lt;span style=&quot;color: rgba(0 , 0 , 0 , 0) ; font-family: monospace ; font-size: 0px ; white-space: nowrap&quot;&gt;%3CmxGraphModel%3E%3Croot%3E%3CmxCell%20id%3D%220%22%2F%3E%3CmxCell%20id%3D%221%22%20parent%3D%220%22%2F%3E%3CmxCell%20id%3D%222%22%20value%3D%22username%22%20style%3D%22ellipse%3BwhiteSpace%3Dwrap%3Bhtml%3D1%3Balign%3Dcenter%3B%22%20vertex%3D%221%22%20parent%3D%221%22%3E%3CmxGeometry%20x%3D%22110%22%20y%3D%22152%22%20width%3D%2270%22%20height%3D%2228%22%20as%3D%22geometry%22%2F%3E%3C%2FmxCell%3E%3C%2Froot%3E%3C%2FmxGraphModel%3E&lt;/span&gt;" style="ellipse;whiteSpace=wrap;html=1;align=center;" parent="1" vertex="1">
          <mxGeometry x="160" y="10" width="70" height="28" as="geometry"/>
        </mxCell>
        <mxCell id="TG9i973_F82ijA39gTVR-5" value="join_date" style="ellipse;whiteSpace=wrap;html=1;align=center;" parent="1" vertex="1">
          <mxGeometry x="240" y="10" width="70" height="28" as="geometry"/>
        </mxCell>
        <mxCell id="TG9i973_F82ijA39gTVR-6" value="adress" style="ellipse;whiteSpace=wrap;html=1;align=center;" parent="1" vertex="1">
          <mxGeometry y="52" width="70" height="28" as="geometry"/>
        </mxCell>
        <mxCell id="TG9i973_F82ijA39gTVR-7" value="card_num" style="ellipse;whiteSpace=wrap;html=1;align=center;" parent="1" vertex="1">
          <mxGeometry y="94" width="70" height="28" as="geometry"/>
        </mxCell>
        <mxCell id="TG9i973_F82ijA39gTVR-8" value="" style="endArrow=none;html=1;rounded=0;exitX=1;exitY=0.5;exitDx=0;exitDy=0;entryX=0;entryY=0.75;entryDx=0;entryDy=0;" parent="1" source="TG9i973_F82ijA39gTVR-7" target="TG9i973_F82ijA39gTVR-1" edge="1">
          <mxGeometry relative="1" as="geometry">
            <mxPoint x="10" y="140" as="sourcePoint"/>
            <mxPoint x="170" y="140" as="targetPoint"/>
          </mxGeometry>
        </mxCell>
        <mxCell id="TG9i973_F82ijA39gTVR-11" value="" style="endArrow=none;html=1;rounded=0;exitX=1;exitY=0.5;exitDx=0;exitDy=0;entryX=0;entryY=0.5;entryDx=0;entryDy=0;" parent="1" source="TG9i973_F82ijA39gTVR-6" target="TG9i973_F82ijA39gTVR-1" edge="1">
          <mxGeometry relative="1" as="geometry">
            <mxPoint x="10" y="140" as="sourcePoint"/>
            <mxPoint x="110" y="90" as="targetPoint"/>
          </mxGeometry>
        </mxCell>
        <mxCell id="TG9i973_F82ijA39gTVR-12" value="" style="endArrow=none;html=1;rounded=0;exitX=1;exitY=1;exitDx=0;exitDy=0;entryX=-0.01;entryY=0.075;entryDx=0;entryDy=0;entryPerimeter=0;" parent="1" source="TG9i973_F82ijA39gTVR-2" target="TG9i973_F82ijA39gTVR-1" edge="1">
          <mxGeometry relative="1" as="geometry">
            <mxPoint x="10" y="140" as="sourcePoint"/>
            <mxPoint x="110" y="100" as="targetPoint"/>
          </mxGeometry>
        </mxCell>
        <mxCell id="TG9i973_F82ijA39gTVR-13" value="" style="endArrow=none;html=1;rounded=0;exitX=0.5;exitY=1;exitDx=0;exitDy=0;entryX=0.17;entryY=0;entryDx=0;entryDy=0;entryPerimeter=0;" parent="1" source="TG9i973_F82ijA39gTVR-3" target="TG9i973_F82ijA39gTVR-1" edge="1">
          <mxGeometry relative="1" as="geometry">
            <mxPoint x="10" y="140" as="sourcePoint"/>
            <mxPoint x="170" y="140" as="targetPoint"/>
          </mxGeometry>
        </mxCell>
        <mxCell id="TG9i973_F82ijA39gTVR-14" value="" style="endArrow=none;html=1;rounded=0;exitX=0.5;exitY=1;exitDx=0;exitDy=0;entryX=0.5;entryY=0;entryDx=0;entryDy=0;" parent="1" source="TG9i973_F82ijA39gTVR-4" target="TG9i973_F82ijA39gTVR-1" edge="1">
          <mxGeometry relative="1" as="geometry">
            <mxPoint x="10" y="140" as="sourcePoint"/>
            <mxPoint x="170" y="140" as="targetPoint"/>
          </mxGeometry>
        </mxCell>
        <mxCell id="TG9i973_F82ijA39gTVR-15" value="" style="endArrow=none;html=1;rounded=0;exitX=0.5;exitY=1;exitDx=0;exitDy=0;entryX=0.93;entryY=0.05;entryDx=0;entryDy=0;entryPerimeter=0;" parent="1" source="TG9i973_F82ijA39gTVR-5" target="TG9i973_F82ijA39gTVR-1" edge="1">
          <mxGeometry relative="1" as="geometry">
            <mxPoint x="10" y="140" as="sourcePoint"/>
            <mxPoint x="170" y="140" as="targetPoint"/>
          </mxGeometry>
        </mxCell>
        <mxCell id="TG9i973_F82ijA39gTVR-16" value="history" style="shape=rhombus;perimeter=rhombusPerimeter;whiteSpace=wrap;html=1;align=center;" parent="1" vertex="1">
          <mxGeometry x="100" y="190" width="120" height="60" as="geometry"/>
        </mxCell>
        <mxCell id="TG9i973_F82ijA39gTVR-17" value="" style="endArrow=none;html=1;rounded=0;exitX=0.5;exitY=1;exitDx=0;exitDy=0;entryX=0.5;entryY=0;entryDx=0;entryDy=0;" parent="1" source="TG9i973_F82ijA39gTVR-1" target="TG9i973_F82ijA39gTVR-16" edge="1">
          <mxGeometry relative="1" as="geometry">
            <mxPoint x="10" y="270" as="sourcePoint"/>
            <mxPoint x="170" y="270" as="targetPoint"/>
          </mxGeometry>
        </mxCell>
        <mxCell id="TG9i973_F82ijA39gTVR-19" value="date" style="ellipse;whiteSpace=wrap;html=1;align=center;fontStyle=4" parent="1" vertex="1">
          <mxGeometry y="206" width="70" height="28" as="geometry"/>
        </mxCell>
        <mxCell id="TG9i973_F82ijA39gTVR-20" value="" style="endArrow=none;html=1;rounded=0;exitX=1;exitY=0.5;exitDx=0;exitDy=0;entryX=0;entryY=0.5;entryDx=0;entryDy=0;" parent="1" source="TG9i973_F82ijA39gTVR-19" target="TG9i973_F82ijA39gTVR-16" edge="1">
          <mxGeometry relative="1" as="geometry">
            <mxPoint x="10" y="270" as="sourcePoint"/>
            <mxPoint x="170" y="270" as="targetPoint"/>
          </mxGeometry>
        </mxCell>
        <mxCell id="TG9i973_F82ijA39gTVR-21" value="movies" style="whiteSpace=wrap;html=1;align=center;" parent="1" vertex="1">
          <mxGeometry x="110" y="350" width="100" height="40" as="geometry"/>
        </mxCell>
        <mxCell id="TG9i973_F82ijA39gTVR-22" value="" style="endArrow=none;html=1;rounded=0;exitX=0.5;exitY=1;exitDx=0;exitDy=0;entryX=0.5;entryY=0;entryDx=0;entryDy=0;" parent="1" source="TG9i973_F82ijA39gTVR-16" target="TG9i973_F82ijA39gTVR-21" edge="1">
          <mxGeometry relative="1" as="geometry">
            <mxPoint x="10" y="410" as="sourcePoint"/>
            <mxPoint x="170" y="410" as="targetPoint"/>
          </mxGeometry>
        </mxCell>
        <mxCell id="TG9i973_F82ijA39gTVR-26" value="path" style="ellipse;whiteSpace=wrap;html=1;align=center;" parent="1" vertex="1">
          <mxGeometry x="80" y="286" width="70" height="28" as="geometry"/>
        </mxCell>
        <mxCell id="TG9i973_F82ijA39gTVR-27" value="place" style="ellipse;whiteSpace=wrap;html=1;align=center;" parent="1" vertex="1">
          <mxGeometry x="170" y="286" width="70" height="28" as="geometry"/>
        </mxCell>
        <mxCell id="TG9i973_F82ijA39gTVR-28" value="movie_id" style="ellipse;whiteSpace=wrap;html=1;align=center;fontStyle=4" parent="1" vertex="1">
          <mxGeometry y="310" width="70" height="28" as="geometry"/>
        </mxCell>
        <mxCell id="TG9i973_F82ijA39gTVR-29" value="synopse" style="ellipse;whiteSpace=wrap;html=1;align=center;" parent="1" vertex="1">
          <mxGeometry y="356" width="70" height="28" as="geometry"/>
        </mxCell>
        <mxCell id="TG9i973_F82ijA39gTVR-30" value="orig_lang" style="ellipse;whiteSpace=wrap;html=1;align=center;" parent="1" vertex="1">
          <mxGeometry y="402" width="70" height="28" as="geometry"/>
        </mxCell>
        <mxCell id="TG9i973_F82ijA39gTVR-31" value="" style="endArrow=none;html=1;rounded=0;exitX=0.5;exitY=1;exitDx=0;exitDy=0;" parent="1" source="TG9i973_F82ijA39gTVR-26" edge="1">
          <mxGeometry relative="1" as="geometry">
            <mxPoint x="10" y="450" as="sourcePoint"/>
            <mxPoint x="130" y="350" as="targetPoint"/>
          </mxGeometry>
        </mxCell>
        <mxCell id="TG9i973_F82ijA39gTVR-32" value="" style="endArrow=none;html=1;rounded=0;exitX=0.5;exitY=1;exitDx=0;exitDy=0;entryX=0.75;entryY=0;entryDx=0;entryDy=0;" parent="1" source="TG9i973_F82ijA39gTVR-27" target="TG9i973_F82ijA39gTVR-21" edge="1">
          <mxGeometry relative="1" as="geometry">
            <mxPoint x="10" y="450" as="sourcePoint"/>
            <mxPoint x="170" y="450" as="targetPoint"/>
          </mxGeometry>
        </mxCell>
        <mxCell id="TG9i973_F82ijA39gTVR-33" value="" style="endArrow=none;html=1;rounded=0;exitX=1;exitY=0.5;exitDx=0;exitDy=0;entryX=0;entryY=0.075;entryDx=0;entryDy=0;entryPerimeter=0;" parent="1" source="TG9i973_F82ijA39gTVR-28" target="TG9i973_F82ijA39gTVR-21" edge="1">
          <mxGeometry relative="1" as="geometry">
            <mxPoint x="10" y="450" as="sourcePoint"/>
            <mxPoint x="170" y="450" as="targetPoint"/>
          </mxGeometry>
        </mxCell>
        <mxCell id="TG9i973_F82ijA39gTVR-34" value="" style="endArrow=none;html=1;rounded=0;exitX=1;exitY=0.5;exitDx=0;exitDy=0;entryX=0;entryY=0.5;entryDx=0;entryDy=0;" parent="1" source="TG9i973_F82ijA39gTVR-29" target="TG9i973_F82ijA39gTVR-21" edge="1">
          <mxGeometry relative="1" as="geometry">
            <mxPoint x="10" y="450" as="sourcePoint"/>
            <mxPoint x="170" y="450" as="targetPoint"/>
          </mxGeometry>
        </mxCell>
        <mxCell id="TG9i973_F82ijA39gTVR-35" value="" style="endArrow=none;html=1;rounded=0;exitX=1;exitY=0.5;exitDx=0;exitDy=0;entryX=-0.003;entryY=0.976;entryDx=0;entryDy=0;entryPerimeter=0;" parent="1" source="TG9i973_F82ijA39gTVR-30" target="TG9i973_F82ijA39gTVR-21" edge="1">
          <mxGeometry relative="1" as="geometry">
            <mxPoint x="10" y="450" as="sourcePoint"/>
            <mxPoint x="170" y="450" as="targetPoint"/>
          </mxGeometry>
        </mxCell>
        <mxCell id="TG9i973_F82ijA39gTVR-37" value="Relationship" style="shape=rhombus;double=1;perimeter=rhombusPerimeter;whiteSpace=wrap;html=1;align=center;" parent="1" vertex="1">
          <mxGeometry x="320" y="70" width="120" height="60" as="geometry"/>
        </mxCell>
        <mxCell id="TG9i973_F82ijA39gTVR-38" value="" style="endArrow=classic;html=1;entryX=1;entryY=0.5;entryDx=0;entryDy=0;exitX=0;exitY=0.5;exitDx=0;exitDy=0;" parent="1" source="TG9i973_F82ijA39gTVR-37" target="TG9i973_F82ijA39gTVR-1" edge="1">
          <mxGeometry width="50" height="50" relative="1" as="geometry">
            <mxPoint x="320" y="170" as="sourcePoint"/>
            <mxPoint x="320" y="230" as="targetPoint"/>
          </mxGeometry>
        </mxCell>
        <mxCell id="TG9i973_F82ijA39gTVR-39" value="payments" style="shape=ext;margin=3;double=1;whiteSpace=wrap;html=1;align=center;" parent="1" vertex="1">
          <mxGeometry x="560" y="82" width="100" height="40" as="geometry"/>
        </mxCell>
        <mxCell id="TG9i973_F82ijA39gTVR-40" value="" style="endArrow=none;html=1;rounded=0;entryX=0;entryY=0.25;entryDx=0;entryDy=0;exitX=0.85;exitY=0.352;exitDx=0;exitDy=0;exitPerimeter=0;" parent="1" source="TG9i973_F82ijA39gTVR-37" target="TG9i973_F82ijA39gTVR-39" edge="1">
          <mxGeometry relative="1" as="geometry">
            <mxPoint x="10" y="450" as="sourcePoint"/>
            <mxPoint x="170" y="450" as="targetPoint"/>
          </mxGeometry>
        </mxCell>
        <mxCell id="TG9i973_F82ijA39gTVR-41" value="" style="endArrow=none;html=1;rounded=0;exitX=0.879;exitY=0.616;exitDx=0;exitDy=0;exitPerimeter=0;entryX=-0.007;entryY=0.624;entryDx=0;entryDy=0;entryPerimeter=0;" parent="1" source="TG9i973_F82ijA39gTVR-37" target="TG9i973_F82ijA39gTVR-39" edge="1">
          <mxGeometry relative="1" as="geometry">
            <mxPoint x="10" y="450" as="sourcePoint"/>
            <mxPoint x="170" y="450" as="targetPoint"/>
          </mxGeometry>
        </mxCell>
        <mxCell id="TG9i973_F82ijA39gTVR-43" value="pay_id" style="ellipse;whiteSpace=wrap;html=1;align=center;" parent="1" vertex="1">
          <mxGeometry x="490" y="10" width="70" height="28" as="geometry"/>
        </mxCell>
        <mxCell id="TG9i973_F82ijA39gTVR-44" value="pay_date" style="ellipse;whiteSpace=wrap;html=1;align=center;" parent="1" vertex="1">
          <mxGeometry x="575" y="10" width="70" height="28" as="geometry"/>
        </mxCell>
        <mxCell id="TG9i973_F82ijA39gTVR-45" value="" style="endArrow=none;html=1;rounded=0;exitX=0.714;exitY=0.975;exitDx=0;exitDy=0;exitPerimeter=0;entryX=0.25;entryY=0;entryDx=0;entryDy=0;" parent="1" source="TG9i973_F82ijA39gTVR-43" target="TG9i973_F82ijA39gTVR-39" edge="1">
          <mxGeometry relative="1" as="geometry">
            <mxPoint x="550" y="170" as="sourcePoint"/>
            <mxPoint x="590" y="190" as="targetPoint"/>
          </mxGeometry>
        </mxCell>
        <mxCell id="TG9i973_F82ijA39gTVR-46" value="" style="endArrow=none;html=1;rounded=0;entryX=0.5;entryY=0;entryDx=0;entryDy=0;exitX=0.5;exitY=1;exitDx=0;exitDy=0;" parent="1" source="TG9i973_F82ijA39gTVR-44" target="TG9i973_F82ijA39gTVR-39" edge="1">
          <mxGeometry relative="1" as="geometry">
            <mxPoint x="610" y="50" as="sourcePoint"/>
            <mxPoint x="655" y="82" as="targetPoint"/>
          </mxGeometry>
        </mxCell>
        <mxCell id="TG9i973_F82ijA39gTVR-47" value="amount" style="ellipse;whiteSpace=wrap;html=1;align=center;" parent="1" vertex="1">
          <mxGeometry x="670" y="10" width="70" height="28" as="geometry"/>
        </mxCell>
        <mxCell id="TG9i973_F82ijA39gTVR-48" value="" style="endArrow=none;html=1;rounded=0;exitX=0;exitY=1;exitDx=0;exitDy=0;entryX=0.75;entryY=0;entryDx=0;entryDy=0;" parent="1" source="TG9i973_F82ijA39gTVR-47" target="TG9i973_F82ijA39gTVR-39" edge="1">
          <mxGeometry relative="1" as="geometry">
            <mxPoint x="460" y="250" as="sourcePoint"/>
            <mxPoint x="620" y="250" as="targetPoint"/>
          </mxGeometry>
        </mxCell>
        <mxCell id="TG9i973_F82ijA39gTVR-52" value="" style="endArrow=classic;html=1;entryX=0.5;entryY=1;entryDx=0;entryDy=0;exitX=0.5;exitY=0;exitDx=0;exitDy=0;" parent="1" target="TG9i973_F82ijA39gTVR-21" edge="1">
          <mxGeometry width="50" height="50" relative="1" as="geometry">
            <mxPoint x="160" y="520" as="sourcePoint"/>
            <mxPoint x="60" y="580" as="targetPoint"/>
          </mxGeometry>
        </mxCell>
        <mxCell id="TG9i973_F82ijA39gTVR-53" value="" style="endArrow=classic;html=1;entryX=0.75;entryY=1;entryDx=0;entryDy=0;exitX=0.461;exitY=0.014;exitDx=0;exitDy=0;exitPerimeter=0;" parent="1" source="TG9i973_F82ijA39gTVR-55" target="TG9i973_F82ijA39gTVR-21" edge="1">
          <mxGeometry width="50" height="50" relative="1" as="geometry">
            <mxPoint x="449.33333333333326" y="520" as="sourcePoint"/>
            <mxPoint x="60" y="580" as="targetPoint"/>
          </mxGeometry>
        </mxCell>
        <mxCell id="TG9i973_F82ijA39gTVR-54" value="lang_available" style="shape=rhombus;double=1;perimeter=rhombusPerimeter;whiteSpace=wrap;html=1;align=center;" parent="1" vertex="1">
          <mxGeometry x="100" y="519.5" width="120" height="60" as="geometry"/>
        </mxCell>
        <mxCell id="TG9i973_F82ijA39gTVR-55" value="categories" style="shape=rhombus;double=1;perimeter=rhombusPerimeter;whiteSpace=wrap;html=1;align=center;" parent="1" vertex="1">
          <mxGeometry x="300" y="524.5" width="120" height="60" as="geometry"/>
        </mxCell>
        <mxCell id="TG9i973_F82ijA39gTVR-56" value="langs" style="shape=ext;margin=3;double=1;whiteSpace=wrap;html=1;align=center;" parent="1" vertex="1">
          <mxGeometry x="110" y="641" width="100" height="40" as="geometry"/>
        </mxCell>
        <mxCell id="TG9i973_F82ijA39gTVR-57" value="" style="endArrow=none;html=1;rounded=0;exitX=0.454;exitY=0.944;exitDx=0;exitDy=0;exitPerimeter=0;" parent="1" source="TG9i973_F82ijA39gTVR-54" edge="1">
          <mxGeometry relative="1" as="geometry">
            <mxPoint x="10" y="690" as="sourcePoint"/>
            <mxPoint x="153" y="640" as="targetPoint"/>
          </mxGeometry>
        </mxCell>
        <mxCell id="TG9i973_F82ijA39gTVR-60" value="lang" style="ellipse;whiteSpace=wrap;html=1;align=center;fontStyle=4" parent="1" vertex="1">
          <mxGeometry x="10" y="647" width="70" height="28" as="geometry"/>
        </mxCell>
        <mxCell id="TG9i973_F82ijA39gTVR-61" value="" style="endArrow=none;html=1;rounded=0;exitX=1;exitY=0.5;exitDx=0;exitDy=0;entryX=0;entryY=0.5;entryDx=0;entryDy=0;" parent="1" source="TG9i973_F82ijA39gTVR-60" target="TG9i973_F82ijA39gTVR-56" edge="1">
          <mxGeometry relative="1" as="geometry">
            <mxPoint x="10" y="690" as="sourcePoint"/>
            <mxPoint x="170" y="690" as="targetPoint"/>
          </mxGeometry>
        </mxCell>
        <mxCell id="TG9i973_F82ijA39gTVR-62" value="category" style="shape=ext;margin=3;double=1;whiteSpace=wrap;html=1;align=center;" parent="1" vertex="1">
          <mxGeometry x="310" y="641" width="100" height="40" as="geometry"/>
        </mxCell>
        <mxCell id="TG9i973_F82ijA39gTVR-65" value="category" style="ellipse;whiteSpace=wrap;html=1;align=center;fontStyle=4" parent="1" vertex="1">
          <mxGeometry x="220" y="647" width="70" height="28" as="geometry"/>
        </mxCell>
        <mxCell id="TG9i973_F82ijA39gTVR-68" value="" style="endArrow=none;html=1;rounded=0;exitX=0;exitY=0.5;exitDx=0;exitDy=0;entryX=1;entryY=0.5;entryDx=0;entryDy=0;" parent="1" source="TG9i973_F82ijA39gTVR-62" target="TG9i973_F82ijA39gTVR-65" edge="1">
          <mxGeometry relative="1" as="geometry">
            <mxPoint x="-80" y="705" as="sourcePoint"/>
            <mxPoint x="80" y="705" as="targetPoint"/>
          </mxGeometry>
        </mxCell>
        <mxCell id="TG9i973_F82ijA39gTVR-69" value="" style="endArrow=none;html=1;rounded=0;exitX=0.5;exitY=1;exitDx=0;exitDy=0;" parent="1" edge="1">
          <mxGeometry relative="1" as="geometry">
            <mxPoint x="370" y="579.5" as="sourcePoint"/>
            <mxPoint x="370" y="641" as="targetPoint"/>
          </mxGeometry>
        </mxCell>
        <mxCell id="TG9i973_F82ijA39gTVR-71" value="" style="endArrow=none;html=1;rounded=0;entryX=0.354;entryY=0;entryDx=0;entryDy=0;entryPerimeter=0;" parent="1" edge="1">
          <mxGeometry relative="1" as="geometry">
            <mxPoint x="169" y="576" as="sourcePoint"/>
            <mxPoint x="169.4000000000001" y="641" as="targetPoint"/>
          </mxGeometry>
        </mxCell>
        <mxCell id="TG9i973_F82ijA39gTVR-72" value="" style="endArrow=none;html=1;rounded=0;entryX=0.403;entryY=-0.017;entryDx=0;entryDy=0;entryPerimeter=0;" parent="1" target="TG9i973_F82ijA39gTVR-62" edge="1">
          <mxGeometry relative="1" as="geometry">
            <mxPoint x="350" y="581" as="sourcePoint"/>
            <mxPoint x="350" y="635" as="targetPoint"/>
          </mxGeometry>
        </mxCell>
        <mxCell id="TG9i973_F82ijA39gTVR-79" value="crew_people" style="whiteSpace=wrap;html=1;align=center;" parent="1" vertex="1">
          <mxGeometry x="560" y="200" width="100" height="40" as="geometry"/>
        </mxCell>
        <mxCell id="TG9i973_F82ijA39gTVR-81" value="person_name" style="ellipse;whiteSpace=wrap;html=1;align=center;fontStyle=4" parent="1" vertex="1">
          <mxGeometry x="417.5" y="203" width="85" height="34" as="geometry"/>
        </mxCell>
        <mxCell id="TG9i973_F82ijA39gTVR-85" value="" style="endArrow=none;html=1;rounded=0;exitX=1;exitY=0.5;exitDx=0;exitDy=0;entryX=0;entryY=0.5;entryDx=0;entryDy=0;" parent="1" source="TG9i973_F82ijA39gTVR-81" target="TG9i973_F82ijA39gTVR-79" edge="1">
          <mxGeometry relative="1" as="geometry">
            <mxPoint x="480" y="300" as="sourcePoint"/>
            <mxPoint x="640" y="300" as="targetPoint"/>
          </mxGeometry>
        </mxCell>
        <mxCell id="TG9i973_F82ijA39gTVR-87" value="nacionality" style="ellipse;whiteSpace=wrap;html=1;align=center;fontStyle=4" parent="1" vertex="1">
          <mxGeometry x="502.5" y="147" width="70" height="28" as="geometry"/>
        </mxCell>
        <mxCell id="TG9i973_F82ijA39gTVR-88" value="birth_date" style="ellipse;whiteSpace=wrap;html=1;align=center;fontStyle=4" parent="1" vertex="1">
          <mxGeometry x="610" y="147" width="70" height="28" as="geometry"/>
        </mxCell>
        <mxCell id="TG9i973_F82ijA39gTVR-89" value="" style="endArrow=none;html=1;rounded=0;exitX=0.5;exitY=1;exitDx=0;exitDy=0;" parent="1" source="TG9i973_F82ijA39gTVR-87" target="TG9i973_F82ijA39gTVR-79" edge="1">
          <mxGeometry relative="1" as="geometry">
            <mxPoint x="525" y="389.5" as="sourcePoint"/>
            <mxPoint x="685" y="389.5" as="targetPoint"/>
          </mxGeometry>
        </mxCell>
        <mxCell id="TG9i973_F82ijA39gTVR-90" value="" style="endArrow=none;html=1;rounded=0;exitX=0.5;exitY=1;exitDx=0;exitDy=0;entryX=0.687;entryY=0.008;entryDx=0;entryDy=0;entryPerimeter=0;" parent="1" source="TG9i973_F82ijA39gTVR-88" target="TG9i973_F82ijA39gTVR-79" edge="1">
          <mxGeometry relative="1" as="geometry">
            <mxPoint x="547.5" y="185" as="sourcePoint"/>
            <mxPoint x="587.7777777777778" y="210" as="targetPoint"/>
          </mxGeometry>
        </mxCell>
        <mxCell id="TG9i973_F82ijA39gTVR-91" value="ISA" style="triangle;whiteSpace=wrap;html=1;direction=south;" parent="1" vertex="1">
          <mxGeometry x="570" y="284" width="80" height="60" as="geometry"/>
        </mxCell>
        <mxCell id="TG9i973_F82ijA39gTVR-92" value="" style="endArrow=none;html=1;rounded=0;exitX=0.5;exitY=1;exitDx=0;exitDy=0;entryX=0;entryY=0.5;entryDx=0;entryDy=0;" parent="1" source="TG9i973_F82ijA39gTVR-79" target="TG9i973_F82ijA39gTVR-91" edge="1">
          <mxGeometry relative="1" as="geometry">
            <mxPoint x="424.5" y="383.5" as="sourcePoint"/>
            <mxPoint x="584.5" y="383.5" as="targetPoint"/>
          </mxGeometry>
        </mxCell>
        <mxCell id="TG9i973_F82ijA39gTVR-93" value="directors" style="whiteSpace=wrap;html=1;align=center;" parent="1" vertex="1">
          <mxGeometry x="460" y="361" width="100" height="40" as="geometry"/>
        </mxCell>
        <mxCell id="TG9i973_F82ijA39gTVR-94" value="actors" style="whiteSpace=wrap;html=1;align=center;" parent="1" vertex="1">
          <mxGeometry x="680" y="360" width="100" height="40" as="geometry"/>
        </mxCell>
        <mxCell id="TG9i973_F82ijA39gTVR-95" value="" style="endArrow=none;html=1;rounded=0;exitX=0.5;exitY=1;exitDx=0;exitDy=0;entryX=0.562;entryY=-0.017;entryDx=0;entryDy=0;entryPerimeter=0;" parent="1" source="TG9i973_F82ijA39gTVR-91" target="TG9i973_F82ijA39gTVR-93" edge="1">
          <mxGeometry relative="1" as="geometry">
            <mxPoint x="502.5" y="500" as="sourcePoint"/>
            <mxPoint x="662.5" y="500" as="targetPoint"/>
          </mxGeometry>
        </mxCell>
        <mxCell id="TG9i973_F82ijA39gTVR-96" value="" style="endArrow=none;html=1;rounded=0;exitX=0.5;exitY=0;exitDx=0;exitDy=0;entryX=0.5;entryY=0;entryDx=0;entryDy=0;" parent="1" source="TG9i973_F82ijA39gTVR-91" target="TG9i973_F82ijA39gTVR-94" edge="1">
          <mxGeometry relative="1" as="geometry">
            <mxPoint x="650" y="378" as="sourcePoint"/>
            <mxPoint x="576.2" y="424.31999999999994" as="targetPoint"/>
          </mxGeometry>
        </mxCell>
        <mxCell id="TG9i973_F82ijA39gTVR-98" value="awards" style="whiteSpace=wrap;html=1;align=center;" parent="1" vertex="1">
          <mxGeometry x="820" y="519.5" width="100" height="40" as="geometry"/>
        </mxCell>
        <mxCell id="TG9i973_F82ijA39gTVR-100" value="" style="endArrow=classic;html=1;entryX=1;entryY=0.75;entryDx=0;entryDy=0;exitX=0;exitY=0.5;exitDx=0;exitDy=0;" parent="1" target="TG9i973_F82ijA39gTVR-79" edge="1" source="TG9i973_F82ijA39gTVR-114">
          <mxGeometry width="50" height="50" relative="1" as="geometry">
            <mxPoint x="800" y="108" as="sourcePoint"/>
            <mxPoint x="755" y="125" as="targetPoint"/>
          </mxGeometry>
        </mxCell>
        <mxCell id="TG9i973_F82ijA39gTVR-105" value="" style="endArrow=none;html=1;rounded=0;entryX=0.5;entryY=1;entryDx=0;entryDy=0;exitX=0.75;exitY=0;exitDx=0;exitDy=0;" parent="1" source="TG9i973_F82ijA39gTVR-98" edge="1" target="TG9i973_F82ijA39gTVR-114">
          <mxGeometry relative="1" as="geometry">
            <mxPoint x="650" y="554" as="sourcePoint"/>
            <mxPoint x="800" y="168" as="targetPoint"/>
            <Array as="points">
              <mxPoint x="820" y="400"/>
            </Array>
          </mxGeometry>
        </mxCell>
        <mxCell id="TG9i973_F82ijA39gTVR-106" value="" style="endArrow=none;html=1;rounded=0;entryX=0.5;entryY=1;entryDx=0;entryDy=0;exitX=0.925;exitY=0.042;exitDx=0;exitDy=0;exitPerimeter=0;" parent="1" source="TG9i973_F82ijA39gTVR-98" edge="1" target="TG9i973_F82ijA39gTVR-115">
          <mxGeometry relative="1" as="geometry">
            <mxPoint x="850" y="520" as="sourcePoint"/>
            <mxPoint x="970" y="168" as="targetPoint"/>
            <Array as="points">
              <mxPoint x="870" y="400"/>
            </Array>
          </mxGeometry>
        </mxCell>
        <mxCell id="TG9i973_F82ijA39gTVR-108" value="award_name" style="ellipse;whiteSpace=wrap;html=1;align=center;fontStyle=4" parent="1" vertex="1">
          <mxGeometry x="680" y="480" width="80" height="28" as="geometry"/>
        </mxCell>
        <mxCell id="TG9i973_F82ijA39gTVR-109" value="award_date" style="ellipse;whiteSpace=wrap;html=1;align=center;fontStyle=4" parent="1" vertex="1">
          <mxGeometry x="768.5" y="480" width="81" height="28" as="geometry"/>
        </mxCell>
        <mxCell id="TG9i973_F82ijA39gTVR-112" value="" style="endArrow=none;html=1;rounded=0;exitX=0.5;exitY=1;exitDx=0;exitDy=0;entryX=0;entryY=0.083;entryDx=0;entryDy=0;entryPerimeter=0;" parent="1" source="TG9i973_F82ijA39gTVR-109" target="TG9i973_F82ijA39gTVR-98" edge="1">
          <mxGeometry relative="1" as="geometry">
            <mxPoint x="590" y="590" as="sourcePoint"/>
            <mxPoint x="750" y="590" as="targetPoint"/>
          </mxGeometry>
        </mxCell>
        <mxCell id="TG9i973_F82ijA39gTVR-113" value="" style="endArrow=none;html=1;rounded=0;exitX=1;exitY=1;exitDx=0;exitDy=0;entryX=0;entryY=0.5;entryDx=0;entryDy=0;" parent="1" source="TG9i973_F82ijA39gTVR-108" target="TG9i973_F82ijA39gTVR-98" edge="1">
          <mxGeometry relative="1" as="geometry">
            <mxPoint x="580" y="600" as="sourcePoint"/>
            <mxPoint x="740" y="600" as="targetPoint"/>
          </mxGeometry>
        </mxCell>
        <mxCell id="TG9i973_F82ijA39gTVR-114" value="person_won" style="shape=rhombus;perimeter=rhombusPerimeter;whiteSpace=wrap;html=1;align=center;" parent="1" vertex="1">
          <mxGeometry x="730" y="256" width="120" height="60" as="geometry"/>
        </mxCell>
        <mxCell id="TG9i973_F82ijA39gTVR-115" value="person_nominee" style="shape=rhombus;perimeter=rhombusPerimeter;whiteSpace=wrap;html=1;align=center;" parent="1" vertex="1">
          <mxGeometry x="849.5" y="190" width="120" height="60" as="geometry"/>
        </mxCell>
        <mxCell id="TG9i973_F82ijA39gTVR-117" value="movies_won" style="shape=rhombus;perimeter=rhombusPerimeter;whiteSpace=wrap;html=1;align=center;" parent="1" vertex="1">
          <mxGeometry x="515" y="478" width="120" height="60" as="geometry"/>
        </mxCell>
        <mxCell id="TG9i973_F82ijA39gTVR-118" value="" style="endArrow=none;html=1;rounded=0;entryX=0;entryY=0.75;entryDx=0;entryDy=0;" parent="1" source="TG9i973_F82ijA39gTVR-117" target="TG9i973_F82ijA39gTVR-98" edge="1">
          <mxGeometry relative="1" as="geometry">
            <mxPoint x="645" y="539.5" as="sourcePoint"/>
            <mxPoint x="805" y="539.5" as="targetPoint"/>
          </mxGeometry>
        </mxCell>
        <mxCell id="TG9i973_F82ijA39gTVR-119" value="" style="endArrow=classic;html=1;exitX=0;exitY=0.5;exitDx=0;exitDy=0;entryX=1;entryY=0.5;entryDx=0;entryDy=0;" parent="1" source="TG9i973_F82ijA39gTVR-117" target="TG9i973_F82ijA39gTVR-21" edge="1">
          <mxGeometry width="50" height="50" relative="1" as="geometry">
            <mxPoint x="452.5" y="509.5" as="sourcePoint"/>
            <mxPoint x="502.5" y="459.5" as="targetPoint"/>
          </mxGeometry>
        </mxCell>
        <mxCell id="TG9i973_F82ijA39gTVR-120" value="directed_by" style="shape=rhombus;perimeter=rhombusPerimeter;whiteSpace=wrap;html=1;align=center;" parent="1" vertex="1">
          <mxGeometry x="275" y="226" width="120" height="60" as="geometry"/>
        </mxCell>
        <mxCell id="TG9i973_F82ijA39gTVR-121" value="" style="endArrow=none;html=1;rounded=0;exitX=1;exitY=0.25;exitDx=0;exitDy=0;entryX=0;entryY=1;entryDx=0;entryDy=0;" parent="1" source="TG9i973_F82ijA39gTVR-21" target="TG9i973_F82ijA39gTVR-120" edge="1">
          <mxGeometry relative="1" as="geometry">
            <mxPoint x="240" y="355.5" as="sourcePoint"/>
            <mxPoint x="400" y="355.5" as="targetPoint"/>
          </mxGeometry>
        </mxCell>
        <mxCell id="TG9i973_F82ijA39gTVR-122" value="" style="endArrow=classic;html=1;exitX=1;exitY=0.5;exitDx=0;exitDy=0;entryX=0.012;entryY=0.946;entryDx=0;entryDy=0;entryPerimeter=0;" parent="1" source="TG9i973_F82ijA39gTVR-120" target="TG9i973_F82ijA39gTVR-79" edge="1">
          <mxGeometry width="50" height="50" relative="1" as="geometry">
            <mxPoint x="424.5" y="300" as="sourcePoint"/>
            <mxPoint x="474.5" y="250" as="targetPoint"/>
          </mxGeometry>
        </mxCell>
        <mxCell id="TG9i973_F82ijA39gTVR-123" value="casted_by" style="shape=rhombus;perimeter=rhombusPerimeter;whiteSpace=wrap;html=1;align=center;" parent="1" vertex="1">
          <mxGeometry x="320" y="301" width="120" height="60" as="geometry"/>
        </mxCell>
        <mxCell id="TG9i973_F82ijA39gTVR-124" value="" style="endArrow=none;html=1;entryX=0.25;entryY=1;entryDx=0;entryDy=0;exitX=1;exitY=0;exitDx=0;exitDy=0;" parent="1" source="TG9i973_F82ijA39gTVR-123" target="TG9i973_F82ijA39gTVR-79" edge="1">
          <mxGeometry width="50" height="50" relative="1" as="geometry">
            <mxPoint x="465" y="314" as="sourcePoint"/>
            <mxPoint x="515" y="264" as="targetPoint"/>
          </mxGeometry>
        </mxCell>
        <mxCell id="TG9i973_F82ijA39gTVR-125" value="" style="endArrow=none;html=1;entryX=0;entryY=1;entryDx=0;entryDy=0;exitX=1;exitY=0.25;exitDx=0;exitDy=0;" parent="1" source="TG9i973_F82ijA39gTVR-21" target="TG9i973_F82ijA39gTVR-123" edge="1">
          <mxGeometry width="50" height="50" relative="1" as="geometry">
            <mxPoint x="420" y="326" as="sourcePoint"/>
            <mxPoint x="595" y="250" as="targetPoint"/>
          </mxGeometry>
        </mxCell>
        <mxCell id="6ejBt9cymoMtmnDikI-O-2" value="movies_nominee" style="shape=rhombus;perimeter=rhombusPerimeter;whiteSpace=wrap;html=1;align=center;" parent="1" vertex="1">
          <mxGeometry x="512.5" y="550" width="120" height="60" as="geometry"/>
        </mxCell>
        <mxCell id="6ejBt9cymoMtmnDikI-O-3" value="" style="endArrow=none;html=1;rounded=0;exitX=1;exitY=0.5;exitDx=0;exitDy=0;entryX=0;entryY=1.013;entryDx=0;entryDy=0;entryPerimeter=0;" parent="1" source="6ejBt9cymoMtmnDikI-O-2" target="TG9i973_F82ijA39gTVR-98" edge="1">
          <mxGeometry relative="1" as="geometry">
            <mxPoint x="632.5" y="652" as="sourcePoint"/>
            <mxPoint x="792.5" y="652" as="targetPoint"/>
          </mxGeometry>
        </mxCell>
        <mxCell id="6ejBt9cymoMtmnDikI-O-4" value="" style="endArrow=none;html=1;rounded=0;exitX=0.99;exitY=1;exitDx=0;exitDy=0;exitPerimeter=0;entryX=0;entryY=0.5;entryDx=0;entryDy=0;" parent="1" source="TG9i973_F82ijA39gTVR-21" target="6ejBt9cymoMtmnDikI-O-2" edge="1">
          <mxGeometry relative="1" as="geometry">
            <mxPoint x="365" y="625" as="sourcePoint"/>
            <mxPoint x="525" y="625" as="targetPoint"/>
          </mxGeometry>
        </mxCell>
        <mxCell id="L3waW7eEh7N6GV9FXfWY-2" value="" style="endArrow=none;html=1;rounded=0;exitX=1;exitY=0.5;exitDx=0;exitDy=0;entryX=0;entryY=0.5;entryDx=0;entryDy=0;" edge="1" parent="1" source="TG9i973_F82ijA39gTVR-79" target="TG9i973_F82ijA39gTVR-115">
          <mxGeometry relative="1" as="geometry">
            <mxPoint x="680" y="215" as="sourcePoint"/>
            <mxPoint x="840" y="215" as="targetPoint"/>
          </mxGeometry>
        </mxCell>
      </root>
    </mxGraphModel>
  </diagram>
</mxfile>
